<svg width="24" height="24" viewBox="0 0 24 24" fill="none" xmlns="http://www.w3.org/2000/svg">
<path d="M21 19.9997H19.3V14.1997C19.3 13.5997 18.9 13.1997 18.3 13.1997C17.7 13.1997 17.3 13.5997 17.3 14.1997V19.9997H15.1V14.1997C15.1 13.5997 14.7 13.1997 14.1 13.1997C13.5 13.1997 13.1 13.5997 13.1 14.1997V19.9997H10.9V14.1997C10.9 13.5997 10.5 13.1997 9.9 13.1997C9.3 13.1997 8.9 13.5997 8.9 14.1997V19.9997H6.7V14.1997C6.7 13.5997 6.3 13.1997 5.7 13.1997C5.1 13.1997 4.7 13.5997 4.7 14.1997V19.9997H3C2.4 19.9997 2 20.3997 2 20.9997C2 21.5997 2.4 21.9997 3 21.9997H21C21.6 21.9997 22 21.5997 22 20.9997C22 20.3997 21.6 19.9997 21 19.9997Z" fill="#4ACE87"/>
<path d="M21 5.9998L13.5 2.2998C12.5 1.7998 11.4 1.7998 10.5 2.2998L3 5.9998C2.4 6.2998 2 6.9998 2 7.5998V9.8998C2 10.8998 2.8 11.6998 3.8 11.6998H20.2C21.2 11.6998 22 10.8998 22 9.8998V7.5998C22 6.8998 21.6 6.2998 21 5.9998Z" fill="#4ACE87"/>
</svg>
