<svg width="24" height="24" viewBox="0 0 24 24" fill="none" xmlns="http://www.w3.org/2000/svg">
<path d="M21 20.0001H19.3V14.2001C19.3 13.6001 18.9 13.2001 18.3 13.2001C17.7 13.2001 17.3 13.6001 17.3 14.2001V20.0001H15.1V14.2001C15.1 13.6001 14.7 13.2001 14.1 13.2001C13.5 13.2001 13.1 13.6001 13.1 14.2001V20.0001H10.9V14.2001C10.9 13.6001 10.5 13.2001 9.9 13.2001C9.3 13.2001 8.9 13.6001 8.9 14.2001V20.0001H6.7V14.2001C6.7 13.6001 6.3 13.2001 5.7 13.2001C5.1 13.2001 4.7 13.6001 4.7 14.2001V20.0001H3C2.4 20.0001 2 20.4001 2 21.0001C2 21.6001 2.4 22.0001 3 22.0001H21C21.6 22.0001 22 21.6001 22 21.0001C22 20.4001 21.6 20.0001 21 20.0001Z" fill="#4C5051"/>
<path d="M21 6.00005L13.5 2.30005C12.5 1.80005 11.4 1.80005 10.5 2.30005L3 6.00005C2.4 6.30005 2 7.00005 2 7.60005V9.90005C2 10.9 2.8 11.7 3.8 11.7H20.2C21.2 11.7 22 10.9 22 9.90005V7.60005C22 6.90005 21.6 6.30005 21 6.00005Z" fill="#4C5051"/>
</svg>
