<svg width="24" height="24" viewBox="0 0 24 24" fill="none" xmlns="http://www.w3.org/2000/svg">
<path d="M3 12.1C3 11.6 3.09999 11.2 3.3 10.7C3.8 9.6 4.9 9 6.1 9L17.9 9C19.1 9 20.1 9.7 20.7 10.8C21.2 11.9 21.1 13.2 20.3 14.1L14.4 21.4C13.8 22.1 13 22.5 12 22.5C11.1 22.5 10.2 22.1 9.6 21.4L3.7 14.1C3.2 13.5 3 12.8 3 12.1Z" fill="#4ACE87"/>
<path d="M6 6C6 5.4 6.4 5 7 5L17 5C17.6 5 18 5.4 18 6C18 6.6 17.6 7 17 7L7 7C6.4 7 6 6.6 6 6Z" fill="#4ACE87"/>
<path d="M8 2C8 1.4 8.4 1 9 1L15 1C15.6 1 16 1.4 16 2C16 2.6 15.6 3 15 3L9 3C8.4 3 8 2.6 8 2Z" fill="#4ACE87"/>
</svg>
