<svg width="299" height="80" viewBox="0 0 299 80" fill="none" xmlns="http://www.w3.org/2000/svg">
<g filter="url(#filter0_bii_77_266)">
<circle cx="40" cy="40" r="40" fill="white" fill-opacity="0.1"/>
</g>
<path d="M69 34.4442H60.48C59.8 34.4442 59.26 33.9046 59.26 33.2251V24.7313C59.26 24.1718 58.82 23.7321 58.26 23.7321H49.74C49.06 23.7321 48.52 23.1925 48.52 22.513L48.48 16.3775C48.48 15.8179 48.14 15.3183 47.64 15.0985C44.32 13.7195 40.78 13 37.12 13C22.16 13 10 25.151 10 40.1C10 55.049 22.16 67.2 37.12 67.2C40.78 67.2 44.3 66.4805 47.64 65.0816C48.16 64.8617 48.48 64.3621 48.48 63.8025L48.52 57.2473C48.52 56.5678 49.06 56.0282 49.74 56.0282H58.26C58.82 56.0282 59.26 55.5886 59.26 55.029V46.5153C59.26 45.8358 59.8 45.2962 60.48 45.2962H69C69.56 45.2962 70 44.8565 70 44.2969V35.4035C70 34.8839 69.56 34.4442 69 34.4442ZM36.42 45.1763H28.3C27.62 45.1763 27.08 44.6367 27.08 43.9572V35.8232C27.08 35.1437 27.62 34.6041 28.3 34.6041H36.44C37.12 34.6041 37.66 35.1437 37.66 35.8232V43.9572C37.64 44.6167 37.1 45.1763 36.42 45.1763ZM47.16 34.4442H39.02C38.34 34.4442 37.8 33.9046 37.8 33.2251V25.1111C37.8 24.4316 38.34 23.892 39.02 23.892H47.16C47.84 23.892 48.38 24.4316 48.38 25.1111V33.2451C48.36 33.9046 47.82 34.4442 47.16 34.4442ZM39.02 45.3361H47.16C47.84 45.3361 48.38 45.8757 48.38 46.5552V54.6892C48.38 55.3687 47.84 55.9083 47.16 55.9083H39.02C38.34 55.9083 37.8 55.3687 37.8 54.6892V46.5552C37.8 45.8757 38.36 45.3361 39.02 45.3361ZM49.76 34.624H57.9C58.58 34.624 59.12 35.1636 59.12 35.8431V43.9771C59.12 44.6566 58.58 45.1962 57.9 45.1962H49.76C49.08 45.1962 48.54 44.6566 48.54 43.9771V35.8431C48.54 35.1636 49.08 34.624 49.76 34.624Z" fill="#DAFF09"/>
<path d="M102.1 51V29.55H106.12L116.05 36.51H116.2L126.13 29.55H130.15V51H125.35V35.55L118.54 40.11V51H113.74V40.11L106.9 35.55V51H102.1ZM140.356 51V29.55H163.876V33.45H145.156V38.19H162.136V42.09H145.156V47.1H163.876V51H140.356ZM180.723 51L171.062 29.55H176.283L184.233 47.25H184.623L192.573 29.55H197.793L188.133 51H180.723ZM205.881 51V29.55H209.421L219.021 29.52C222.901 29.52 225.911 30.43 228.051 32.25C230.191 34.07 231.261 36.74 231.261 40.26C231.261 43.78 230.191 46.45 228.051 48.27C225.911 50.09 222.901 51 219.021 51H205.881ZM218.691 33.42H210.681V47.1H218.691C221.211 47.1 223.121 46.55 224.421 45.45C225.721 44.35 226.371 42.62 226.371 40.26C226.371 37.88 225.721 36.15 224.421 35.07C223.121 33.97 221.211 33.42 218.691 33.42ZM240.27 51V29.55H263.79V33.45H245.07V38.19H262.05V42.09H245.07V47.1H263.79V51H240.27ZM271.277 51L279.317 40.29L271.277 29.55H277.127L283.577 38.34H286.337L292.787 29.55H298.637L290.597 40.29L298.637 51H292.757L286.337 42.24H283.577L277.157 51H271.277Z" fill="#DAFF09"/>
<defs>
<filter id="filter0_bii_77_266" x="-10" y="-10" width="100" height="100" filterUnits="userSpaceOnUse" color-interpolation-filters="sRGB">
<feFlood flood-opacity="0" result="BackgroundImageFix"/>
<feGaussianBlur in="BackgroundImageFix" stdDeviation="5"/>
<feComposite in2="SourceAlpha" operator="in" result="effect1_backgroundBlur_77_266"/>
<feBlend mode="normal" in="SourceGraphic" in2="effect1_backgroundBlur_77_266" result="shape"/>
<feColorMatrix in="SourceAlpha" type="matrix" values="0 0 0 0 0 0 0 0 0 0 0 0 0 0 0 0 0 0 127 0" result="hardAlpha"/>
<feOffset dx="4"/>
<feGaussianBlur stdDeviation="2"/>
<feComposite in2="hardAlpha" operator="arithmetic" k2="-1" k3="1"/>
<feColorMatrix type="matrix" values="0 0 0 0 1 0 0 0 0 1 0 0 0 0 1 0 0 0 0.25 0"/>
<feBlend mode="normal" in2="shape" result="effect2_innerShadow_77_266"/>
<feColorMatrix in="SourceAlpha" type="matrix" values="0 0 0 0 0 0 0 0 0 0 0 0 0 0 0 0 0 0 127 0" result="hardAlpha"/>
<feOffset dx="-1" dy="-3"/>
<feGaussianBlur stdDeviation="2"/>
<feComposite in2="hardAlpha" operator="arithmetic" k2="-1" k3="1"/>
<feColorMatrix type="matrix" values="0 0 0 0 0 0 0 0 0 0 0 0 0 0 0 0 0 0 0.25 0"/>
<feBlend mode="normal" in2="effect2_innerShadow_77_266" result="effect3_innerShadow_77_266"/>
</filter>
</defs>
</svg>
