<svg width="24" height="24" viewBox="0 0 24 24" fill="none" xmlns="http://www.w3.org/2000/svg">
<path d="M12 12.7002C11.3 12.7002 10.7 12.6002 10 12.3002L3.1 9.1002C2.4 8.8002 2 8.1002 2 7.3002C2 6.5002 2.4 5.9002 3.1 5.5002L10 2.4002C11.3 1.8002 12.7 1.8002 13.9 2.4002L20.8 5.5002C21.5 5.8002 21.9 6.5002 21.9 7.3002C21.9 8.1002 21.5 8.7002 20.8 9.1002L14 12.2002C13.3 12.5002 12.7 12.7002 12 12.7002Z" fill="#4ACE87"/>
<path d="M12.0001 17.2999C11.3001 17.2999 10.7001 17.1999 10.0001 16.8999L3.10008 13.7999C2.60008 13.5999 2.40008 12.9999 2.60008 12.4999C2.90008 11.8999 3.50008 11.6999 4.00008 11.8999L10.9001 14.9999C11.6001 15.2999 12.5001 15.2999 13.2001 14.9999L20.0001 11.8999C20.5001 11.6999 21.1001 11.8999 21.3001 12.3999C21.5001 12.8999 21.3001 13.4999 20.8001 13.6999L14.0001 16.8999C13.3001 17.0999 12.7001 17.2999 12.0001 17.2999Z" fill="#4ACE87"/>
<path d="M12.0001 22.0002C11.3001 22.0002 10.7001 21.9002 10.0001 21.6002L3.10008 18.5002C2.60008 18.3002 2.40008 17.7002 2.60008 17.2002C2.80008 16.7002 3.40008 16.5002 3.90008 16.7002L10.8001 19.8002C11.5001 20.1002 12.4001 20.1002 13.1001 19.8002L20.0001 16.7002C20.5001 16.5002 21.1001 16.7002 21.3001 17.2002C21.5001 17.7002 21.3001 18.3002 20.8001 18.5002L14.0001 21.6002C13.3001 21.9002 12.7001 22.0002 12.0001 22.0002Z" fill="#4ACE87"/>
</svg>
