<svg width="24" height="24" viewBox="0 0 24 24" fill="none" xmlns="http://www.w3.org/2000/svg">
<path d="M12 12.7C11.3 12.7 10.7 12.6 10 12.3L3.1 9.09995C2.4 8.79995 2 8.09995 2 7.29995C2 6.49995 2.4 5.89995 3.1 5.49995L10 2.39995C11.3 1.79995 12.7 1.79995 13.9 2.39995L20.8 5.49995C21.5 5.79995 21.9 6.49995 21.9 7.29995C21.9 8.09995 21.5 8.69995 20.8 9.09995L14 12.2C13.3 12.5 12.7 12.7 12 12.7Z" fill="#4C5051"/>
<path d="M12 17.3C11.3 17.3 10.7 17.2 10 16.9L3.10002 13.8C2.60002 13.6 2.40002 13 2.60002 12.5C2.90002 11.9 3.50002 11.7 4.00002 11.9L10.9 15C11.6 15.3 12.5 15.3 13.2 15L20 11.9C20.5 11.7 21.1 11.9 21.3 12.4C21.5 12.9 21.3 13.5 20.8 13.7L14 16.9C13.3 17.1 12.7 17.3 12 17.3Z" fill="#4C5051"/>
<path d="M12 22.0001C11.3 22.0001 10.7 21.9001 10 21.6001L3.10002 18.5001C2.60002 18.3001 2.40002 17.7001 2.60002 17.2001C2.80002 16.7001 3.40002 16.5001 3.90002 16.7001L10.8 19.8001C11.5 20.1001 12.4 20.1001 13.1 19.8001L20 16.7001C20.5 16.5001 21.1 16.7001 21.3 17.2001C21.5 17.7001 21.3 18.3001 20.8 18.5001L14 21.6001C13.3 21.9001 12.7 22.0001 12 22.0001Z" fill="#4C5051"/>
</svg>
