<svg width="60" height="55" viewBox="0 0 60 55" fill="none" xmlns="http://www.w3.org/2000/svg">
<path d="M59 21.4442H50.48C49.8 21.4442 49.26 20.9046 49.26 20.2251V11.7313C49.26 11.1718 48.82 10.7321 48.26 10.7321H39.74C39.06 10.7321 38.52 10.1925 38.52 9.51298L38.48 3.37751C38.48 2.81792 38.14 2.31829 37.64 2.09845C34.32 0.719469 30.78 0 27.12 0C12.16 0 0 12.151 0 27.1C0 42.049 12.16 54.2 27.12 54.2C30.78 54.2 34.3 53.4805 37.64 52.0816C38.16 51.8617 38.48 51.3621 38.48 50.8025L38.52 44.2473C38.52 43.5678 39.06 43.0282 39.74 43.0282H48.26C48.82 43.0282 49.26 42.5886 49.26 42.029V33.5153C49.26 32.8358 49.8 32.2962 50.48 32.2962H59C59.56 32.2962 60 31.8565 60 31.2969V22.4035C60 21.8839 59.56 21.4442 59 21.4442ZM26.42 32.1763H18.3C17.62 32.1763 17.08 31.6367 17.08 30.9572V22.8232C17.08 22.1437 17.62 21.6041 18.3 21.6041H26.44C27.12 21.6041 27.66 22.1437 27.66 22.8232V30.9572C27.64 31.6167 27.1 32.1763 26.42 32.1763ZM37.16 21.4442H29.02C28.34 21.4442 27.8 20.9046 27.8 20.2251V12.1111C27.8 11.4316 28.34 10.892 29.02 10.892H37.16C37.84 10.892 38.38 11.4316 38.38 12.1111V20.2451C38.36 20.9046 37.82 21.4442 37.16 21.4442ZM29.02 32.3361H37.16C37.84 32.3361 38.38 32.8757 38.38 33.5552V41.6892C38.38 42.3687 37.84 42.9083 37.16 42.9083H29.02C28.34 42.9083 27.8 42.3687 27.8 41.6892V33.5552C27.8 32.8757 28.36 32.3361 29.02 32.3361ZM39.76 21.624H47.9C48.58 21.624 49.12 22.1636 49.12 22.8431V30.9771C49.12 31.6566 48.58 32.1962 47.9 32.1962H39.76C39.08 32.1962 38.54 31.6566 38.54 30.9771V22.8431C38.54 22.1636 39.08 21.624 39.76 21.624Z" fill="#DAFF09"/>
</svg>
