<svg width="14" height="31" viewBox="0 0 14 31" fill="none" xmlns="http://www.w3.org/2000/svg">
<path d="M6.36364 0C7.06654 0 7.63636 0.578299 7.63636 1.29167V15.5C7.63636 16.2134 8.20618 16.7917 8.90909 16.7917H12.7273C13.4302 16.7917 14 17.37 14 18.0833V29.7083C14 30.4217 13.4302 31 12.7273 31H1.27273C0.569819 31 0 30.4217 0 29.7083V18.0833C0 17.37 0.569819 16.7917 1.27273 16.7917H2.54545C3.24836 16.7917 3.81818 16.2134 3.81818 15.5V6.45833C3.81818 5.74497 3.24836 5.16667 2.54545 5.16667H1.27273C0.569819 5.16667 0 4.58837 0 3.875V1.29167C0 0.578299 0.569819 0 1.27273 0H6.36364Z" fill="#DAFF09"/>
</svg>
