<svg width="24" height="24" viewBox="0 0 24 24" fill="none" xmlns="http://www.w3.org/2000/svg">
<path d="M2 6H3H21H22H22.7C22.8 6 22.9 6 23 6C23 3.77778 21.3 2 19.3 2H4.7C2.7 2 1 3.77778 1 6C1.1 6 1.2 6 1.3 6H2Z" fill="#272C2E"/>
<path d="M22 8H21H3H2H1.3C1.2 8 1.1 8 1 8V17.437C1 19.363 2.7 21 4.7 21H19.3C21.4 21 23 19.363 23 17.437V8C22.6614 8 22.4072 8.00001 22 8Z" fill="#272C2E"/>
<path d="M9.70001 17.4C9.50001 17.4 9.20001 17.3 9.00001 17.2L6.00001 14.5001C5.80001 14.3001 5.70001 14 5.70001 13.7C5.70001 13.4 5.80001 13.2001 6.00001 13.0001L9.00001 10.3001C9.40001 9.90005 10 10 10.4 10.4C10.8 10.8 10.7 11.4001 10.3 11.8001L8.10001 13.7L10.3 15.6001C10.7 16.0001 10.8 16.6 10.4 17.0001C10.3 17.3001 10 17.4 9.70001 17.4Z" fill="#DAFF09"/>
<path d="M14.3 17.3999C14 17.3999 13.7 17.2999 13.5 17.0999C13.1 16.6999 13.2 16.0999 13.6 15.6999L15.8 13.7999L13.6 11.8999C13.2 11.4999 13.1 10.8999 13.5 10.4999C13.9 10.0999 14.5 9.9999 14.9 10.3999L18 12.9999C18.2 13.1999 18.3 13.4999 18.3 13.7999C18.3 14.0999 18.2 14.3999 18 14.5999L15 17.1999C14.8 17.2999 14.5 17.3999 14.3 17.3999Z" fill="#DAFF09"/>
</svg>
