<svg width="24" height="24" viewBox="0 0 24 24" fill="none" xmlns="http://www.w3.org/2000/svg">
<path d="M12 21.991C11.8 21.991 11.6 21.891 11.4 21.7911L8.5 19.692L5.6 21.7911C5.3 21.991 4.9 21.991 4.6 21.891C4.2 21.6911 4 21.3913 4 20.9914V5.49842C4 3.49932 5.5 2 7.3 2H16.6C18.5 2 20 3.49932 20 5.49842V20.9914C20 21.3913 19.8 21.6911 19.5 21.891C19.2 22.0909 18.8 21.991 18.5 21.7911L15.6 19.692L12.7 21.7911C12.4 21.891 12.2 21.991 12 21.991Z" fill="#4ACE87"/>
<path d="M11.5 14.2001C11.3 14.2001 11 14.1001 10.9 14.0001L8.90005 12.4001C8.50005 12.0001 8.40005 11.3001 8.80005 10.9001C9.20005 10.5001 9.80005 10.4001 10.2 10.8001L11.4 11.8001L13.7 9.20007C14.1 8.80007 14.7 8.80007 15.1 9.10007C15.5001 9.50007 15.5 10.1001 15.2 10.5001L12.3001 13.9001C12.1 14.1001 11.8 14.2001 11.5 14.2001Z" fill="#13140B"/>
</svg>
