<svg width="16" height="30" viewBox="0 0 16 30" fill="none" xmlns="http://www.w3.org/2000/svg">
<path d="M11.9363 1.25C11.9363 0.559644 11.4019 0 10.7427 0H1.19363C0.534408 0 0 0.559644 0 1.25V2.5C0 3.19036 0.534408 3.75 1.19363 3.75L7.1618 3.75C7.82103 3.75 8.35544 4.30964 8.35544 5V12.5C8.35544 13.1904 7.82103 13.75 7.1618 13.75H1.19363C0.534408 13.75 0 14.3096 0 15V16.25C0 16.9404 0.534408 17.5 1.19363 17.5L7.1618 17.5C7.82103 17.5 8.35544 18.0596 8.35544 18.75V25C8.35544 25.6904 7.82103 26.25 7.1618 26.25H1.19363C0.534408 26.25 0 26.8096 0 27.5V28.75C0 29.4404 0.534408 30 1.19363 30H14.3236C14.9828 30 15.5172 29.4404 15.5172 28.75V17.1509C15.5172 16.6129 15.1885 16.1352 14.7011 15.9651L12.7525 15.2849C12.2651 15.1148 11.9363 14.6371 11.9363 14.0991V1.25Z" fill="#DAFF09"/>
</svg>
