<svg width="24" height="24" viewBox="0 0 24 24" fill="none" xmlns="http://www.w3.org/2000/svg">
<path d="M6.4 15.4V8.6C7.5 8.3 8.3 7.4 8.6 6.4H13C13.6 6.4 14 6 14 5.4C14 4.8 13.6 4.4 13 4.4H8.6C8.2 3 6.9 2 5.4 2C3.5 2 2 3.5 2 5.4C2 6.9 3 8.2 4.4 8.6V15.3C3 15.8 2 17.1 2 18.6C2 20.5 3.5 22 5.4 22C7.3 22 8.8 20.5 8.8 18.6C8.8 17.1 7.8 15.8 6.4 15.4Z" fill="#4C5051"/>
<path d="M19.6 15.4V8.6C21 8.2 22 6.9 22 5.4C22 3.5 20.5 2 18.6 2C16.7 2 15.2 3.5 15.2 5.4C15.2 6.9 16.2 8.2 17.6 8.6V15.3C16.5 15.6 15.7 16.5 15.4 17.5H11C10.4 17.5 10 17.9 10 18.5C10 19.1 10.4 19.5 11 19.5H15.4C15.8 20.9 17.1 21.9 18.6 21.9C20.5 21.9 22 20.4 22 18.5C22 17.1 21 15.8 19.6 15.4Z" fill="#4C5051"/>
</svg>
