<svg width="14" height="30" viewBox="0 0 14 30" fill="none" xmlns="http://www.w3.org/2000/svg">
<path d="M1.27273 0C0.569819 0 0 0.559644 0 1.25V2.5C0 3.19036 0.569819 3.75 1.27273 3.75L8.90909 3.75C9.612 3.75 10.1818 4.30964 10.1818 5V12.5C10.1818 13.1904 9.612 13.75 8.90909 13.75L1.27273 13.75C0.569819 13.75 0 14.3096 0 15V28.75C0 29.4404 0.569819 30 1.27273 30H12.7273C13.4302 30 14 29.4404 14 28.75V27.5C14 26.8096 13.4302 26.25 12.7273 26.25H5.09091C4.388 26.25 3.81818 25.6904 3.81818 25V18.75C3.81818 18.0596 4.388 17.5 5.09091 17.5L12.7273 17.5C13.4302 17.5 14 16.9404 14 16.25V1.25C14 0.559644 13.4302 0 12.7273 0H1.27273Z" fill="#DAFF09"/>
</svg>
