<svg width="17" height="22" viewBox="0 0 17 22" fill="none" xmlns="http://www.w3.org/2000/svg">
<path fill-rule="evenodd" clip-rule="evenodd" d="M11.6525 1.81776C11.6525 0.993283 11.155 0.340738 10.475 0.0989786C9.8099 -0.137446 9.00434 0.0427241 8.52103 0.714562L5.88041 3.991L3.73184 6.59138L0.341076 10.8102C0.314643 10.8431 0.290318 10.8776 0.268247 10.9136C-0.0839595 11.4874 -0.0583207 12.1651 0.166232 12.6773C0.39716 13.2041 0.932306 13.7392 1.73551 13.7392H5.24521V20.1538C5.24521 20.9993 5.76193 21.6335 6.43913 21.8818C7.08399 22.1182 7.83818 21.9996 8.41426 21.5303C8.46961 21.4852 8.51996 21.4343 8.56448 21.3785L13.2753 15.4718L15.3212 12.9718L15.3349 12.9546L16.6673 11.2512C16.6906 11.2215 16.7122 11.1904 16.732 11.1582C17.0842 10.5843 17.0585 9.90663 16.834 9.39442C16.603 8.86766 16.0679 8.3325 15.2647 8.3325H11.6525V1.81776Z" fill="#4ACE87"/>
</svg>
